<svg width="96" height="96" viewBox="0 0 96 96" fill="none" xmlns="http://www.w3.org/2000/svg">
<g clip-path="url(#clip0_71_41)">
<path d="M80 72C84.4 72 87.96 68.4 87.96 64L88 24C88 19.6 84.4 16 80 16H16C11.6 16 8 19.6 8 24V64C8 68.4 11.6 72 16 72H0V80H96V72H80ZM16 24H80V64H16V24Z" fill="#C07070"/>
<path d="M35.5398 56.2159V60H33.7244V53.4545H35.4545V54.6094H35.5312C35.6761 54.2287 35.919 53.9276 36.2599 53.706C36.6009 53.4815 37.0142 53.3693 37.5 53.3693C37.9545 53.3693 38.3509 53.4688 38.6889 53.6676C39.027 53.8665 39.2898 54.1506 39.4773 54.5199C39.6648 54.8864 39.7585 55.3239 39.7585 55.8324V60H37.9432V56.1562C37.946 55.7557 37.8438 55.4432 37.6364 55.2188C37.429 54.9915 37.1435 54.8778 36.7798 54.8778C36.5355 54.8778 36.3196 54.9304 36.1321 55.0355C35.9474 55.1406 35.8026 55.294 35.6974 55.4957C35.5952 55.6946 35.5426 55.9347 35.5398 56.2159ZM43.0558 60.1236C42.6381 60.1236 42.266 60.0511 41.9393 59.9062C41.6126 59.7585 41.354 59.5412 41.1637 59.2543C40.9762 58.9645 40.8825 58.6037 40.8825 58.1719C40.8825 57.8082 40.9492 57.5028 41.0827 57.2557C41.2163 57.0085 41.3981 56.8097 41.6282 56.6591C41.8583 56.5085 42.1197 56.3949 42.4123 56.3182C42.7077 56.2415 43.0174 56.1875 43.3413 56.1562C43.7219 56.1165 44.0288 56.0795 44.2617 56.0455C44.4947 56.0085 44.6637 55.9545 44.7688 55.8835C44.8739 55.8125 44.9265 55.7074 44.9265 55.5682V55.5426C44.9265 55.2727 44.8413 55.0639 44.6708 54.9162C44.5032 54.7685 44.2646 54.6946 43.9549 54.6946C43.6282 54.6946 43.3683 54.767 43.1751 54.9119C42.9819 55.054 42.854 55.233 42.7915 55.4489L41.1126 55.3125C41.1978 54.9148 41.3654 54.571 41.6154 54.2812C41.8654 53.9886 42.1879 53.7642 42.5827 53.608C42.9805 53.4489 43.4407 53.3693 43.9634 53.3693C44.3271 53.3693 44.6751 53.4119 45.0075 53.4972C45.3427 53.5824 45.6396 53.7145 45.8981 53.8935C46.1594 54.0724 46.3654 54.3026 46.516 54.5838C46.6665 54.8622 46.7418 55.196 46.7418 55.5852V60H45.0202V59.0923H44.9691C44.864 59.2969 44.7234 59.4773 44.5472 59.6335C44.3711 59.7869 44.1594 59.9077 43.9123 59.9957C43.6651 60.081 43.3796 60.1236 43.0558 60.1236ZM43.5756 58.8707C43.8427 58.8707 44.0785 58.8182 44.283 58.7131C44.4876 58.6051 44.6481 58.4602 44.7646 58.2784C44.881 58.0966 44.9393 57.8906 44.9393 57.6605V56.9659C44.8825 57.0028 44.8043 57.0369 44.7049 57.0682C44.6083 57.0966 44.4989 57.1236 44.3768 57.1491C44.2546 57.1719 44.1325 57.1932 44.0103 57.2131C43.8881 57.2301 43.7773 57.2457 43.6779 57.2599C43.4648 57.2912 43.2788 57.3409 43.1197 57.4091C42.9606 57.4773 42.837 57.5696 42.7489 57.6861C42.6609 57.7997 42.6168 57.9418 42.6168 58.1122C42.6168 58.3594 42.7063 58.5483 42.8853 58.679C43.0671 58.8068 43.2972 58.8707 43.5756 58.8707ZM51.6317 53.4545V54.8182H47.69V53.4545H51.6317ZM48.5849 51.8864H50.4002V57.9886C50.4002 58.1562 50.4258 58.2869 50.4769 58.3807C50.5281 58.4716 50.5991 58.5355 50.69 58.5724C50.7837 58.6094 50.8917 58.6278 51.0138 58.6278C51.0991 58.6278 51.1843 58.6207 51.2695 58.6065C51.3548 58.5895 51.4201 58.5767 51.4656 58.5682L51.7511 59.919C51.6602 59.9474 51.5323 59.9801 51.3675 60.017C51.2028 60.0568 51.0025 60.081 50.7667 60.0895C50.3292 60.1065 49.9457 60.0483 49.6161 59.9148C49.2894 59.7812 49.0352 59.5739 48.8533 59.2926C48.6715 59.0114 48.582 58.6562 48.5849 58.2273V51.8864ZM54.7702 56.2159V60H52.9549V51.2727H54.7191V54.6094H54.7958C54.9435 54.223 55.1822 53.9205 55.5117 53.7017C55.8413 53.4801 56.2546 53.3693 56.7518 53.3693C57.2063 53.3693 57.6026 53.4688 57.9407 53.6676C58.2816 53.8636 58.5458 54.1463 58.7333 54.5156C58.9237 54.8821 59.0174 55.321 59.0146 55.8324V60H57.1992V56.1562C57.2021 55.7528 57.0998 55.4389 56.8924 55.2145C56.6879 54.9901 56.4009 54.8778 56.0316 54.8778C55.7844 54.8778 55.5657 54.9304 55.3754 55.0355C55.1879 55.1406 55.0401 55.294 54.9322 55.4957C54.8271 55.6946 54.7731 55.9347 54.7702 56.2159ZM63.4006 60.1278C62.7386 60.1278 62.1662 59.9872 61.6832 59.706C61.2031 59.4219 60.8324 59.027 60.571 58.5213C60.3097 58.0128 60.179 57.4233 60.179 56.7528C60.179 56.0767 60.3097 55.4858 60.571 54.9801C60.8324 54.4716 61.2031 54.0767 61.6832 53.7955C62.1662 53.5114 62.7386 53.3693 63.4006 53.3693C64.0625 53.3693 64.6335 53.5114 65.1136 53.7955C65.5966 54.0767 65.9688 54.4716 66.2301 54.9801C66.4915 55.4858 66.6222 56.0767 66.6222 56.7528C66.6222 57.4233 66.4915 58.0128 66.2301 58.5213C65.9688 59.027 65.5966 59.4219 65.1136 59.706C64.6335 59.9872 64.0625 60.1278 63.4006 60.1278ZM63.4091 58.7216C63.7102 58.7216 63.9616 58.6364 64.1634 58.4659C64.3651 58.2926 64.517 58.0568 64.6193 57.7585C64.7244 57.4602 64.777 57.1207 64.777 56.7401C64.777 56.3594 64.7244 56.0199 64.6193 55.7216C64.517 55.4233 64.3651 55.1875 64.1634 55.0142C63.9616 54.8409 63.7102 54.7543 63.4091 54.7543C63.1051 54.7543 62.8494 54.8409 62.642 55.0142C62.4375 55.1875 62.2827 55.4233 62.1776 55.7216C62.0753 56.0199 62.0241 56.3594 62.0241 56.7401C62.0241 57.1207 62.0753 57.4602 62.1776 57.7585C62.2827 58.0568 62.4375 58.2926 62.642 58.4659C62.8494 58.6364 63.1051 58.7216 63.4091 58.7216ZM69.6179 51.2727V60H67.8026V51.2727H69.6179ZM74.055 60.1278C73.3817 60.1278 72.8022 59.9915 72.3164 59.7188C71.8335 59.4432 71.4613 59.054 71.1999 58.5511C70.9386 58.0455 70.8079 57.4474 70.8079 56.7571C70.8079 56.0838 70.9386 55.4929 71.1999 54.9844C71.4613 54.4759 71.8292 54.0795 72.3036 53.7955C72.7809 53.5114 73.3406 53.3693 73.9826 53.3693C74.4144 53.3693 74.8164 53.4389 75.1886 53.5781C75.5636 53.7145 75.8903 53.9205 76.1687 54.196C76.4499 54.4716 76.6687 54.8182 76.8249 55.2358C76.9812 55.6506 77.0593 56.1364 77.0593 56.6932V57.1918H71.5323V56.0668H75.3505C75.3505 55.8054 75.2937 55.5739 75.18 55.3722C75.0664 55.1705 74.9087 55.0128 74.707 54.8991C74.5082 54.7827 74.2766 54.7244 74.0124 54.7244C73.7369 54.7244 73.4925 54.7884 73.2795 54.9162C73.0692 55.0412 72.9045 55.2102 72.7852 55.4233C72.6658 55.6335 72.6048 55.8679 72.6019 56.1264V57.196C72.6019 57.5199 72.6616 57.7997 72.7809 58.0355C72.9031 58.2713 73.0749 58.4531 73.2965 58.581C73.5181 58.7088 73.7809 58.7727 74.0849 58.7727C74.2866 58.7727 74.4712 58.7443 74.6388 58.6875C74.8065 58.6307 74.9499 58.5455 75.0692 58.4318C75.1886 58.3182 75.2795 58.179 75.342 58.0142L77.021 58.125C76.9357 58.5284 76.761 58.8807 76.4968 59.1818C76.2354 59.4801 75.8974 59.7131 75.4826 59.8807C75.0707 60.0455 74.5948 60.1278 74.055 60.1278Z" fill="#2BFA19"/>
<path d="M12.4588 55.642L12.4162 50.6776H13.2685L28.6094 35.2727H33.4034L18.2543 50.4432L17.9134 50.5071L12.4588 55.642ZM9.0071 68V24.3636H12.7997V68H9.0071ZM29.3977 68L16.1023 51.1889L18.8295 48.5682L34.2557 68H29.3977Z" fill="#C07070"/>
</g>
<defs>
<clipPath id="clip0_71_41">
<rect width="96" height="96" fill="white"/>
</clipPath>
</defs>
</svg>
