<svg width="566" height="506" viewBox="0 0 566 506" fill="none" xmlns="http://www.w3.org/2000/svg">
<path d="M498.104 366.812C532.157 348.061 573.609 372.326 563.511 409.866C525.067 552.795 394.57 658 239.5 658C54.2085 658 -96 507.792 -96 322.5C-96 172.264 2.74857 45.0921 138.88 2.34985C178.565 -10.1105 202.413 35.2726 178.44 69.2651C-116.246 487.116 43.575 617.094 498.104 366.812Z" fill="url(#paint0_linear_37_8)" fill-opacity="0.17"/>
<path d="M498.345 367.25C515.215 357.961 533.896 359.337 547.098 367.653C560.283 375.96 568.016 391.193 563.029 409.737C524.642 552.452 394.338 657.5 239.5 657.5C54.4846 657.5 -95.5 507.515 -95.5 322.5C-95.5 172.489 3.10077 45.5056 139.03 2.82689C158.638 -3.32982 174.282 4.79362 182.097 18.6335C189.925 32.497 189.911 52.1333 178.032 68.9769C104.347 173.459 59.0459 259.982 39.6685 327.095C20.2982 394.183 26.7924 442.042 56.9837 468.962C87.1433 495.853 140.743 501.645 215.07 485.157C289.432 468.661 384.692 429.832 498.345 367.25Z" stroke="#162D3D" stroke-opacity="0.24"/>
<defs>
<linearGradient id="paint0_linear_37_8" x1="524.5" y1="-145" x2="-116.5" y2="531.5" gradientUnits="userSpaceOnUse">
<stop offset="0.0415508" stop-color="#587B93" stop-opacity="0.99"/>
<stop offset="0.410182" stop-color="#5982B2" stop-opacity="0.80154"/>
<stop offset="1" stop-color="#C07070" stop-opacity="0.5"/>
</linearGradient>
</defs>
</svg>
